<?xml version="1.0" encoding="UTF-8"?>
<svg width="20px" height="20px" viewBox="0 0 20 20" version="1.1" xmlns="http://www.w3.org/2000/svg" xmlns:xlink="http://www.w3.org/1999/xlink">
    <!-- Generator: Sketch 53.2 (72643) - https://sketchapp.com -->
    <title>balance</title>
    <desc>Created with Sketch.</desc>
    <g id="Page-1" stroke="none" stroke-width="1" fill="none" fill-rule="evenodd">
        <g id="account" transform="translate(-30.000000, -389.000000)" fill="#2D2E2C" fill-rule="nonzero">
            <g id="side-navigation" transform="translate(29.000000, 150.000000)">
                <path d="M10,239 C9.232971,239 8.460131,239.2996 7.878906,239.8809 L4.759766,243 L3,243 C1.94451244,243 1,244 1,244.9961 L1,257 C1,258 2,259 3,259 L17.000004,259 C18,259 19,258 19,257 L19,254 L20,254 C20.5522619,253.999945 20.9999448,253.552262 21,253 L21,249 C20.9999448,248.447738 20.5522619,248.000055 20,248 L19,248 L19,244.9961 C19,244 18,243.0039 17,243.0039 L16.5,243.0039 L15.238277,243.0039 L12.12109,239.8848 C11.539868,239.2996 10.767029,239 10,239 Z M10,241 C10.255451,241 10.504797,241.093 10.707031,241.2949 L12.412109,243 L7.587891,243 L9.292969,241.2949 C9.495224,241.0927 9.744549,241 10,241 Z M16.089844,244.9961 C16.552494,244.9541 17,245.4314 17,246 L17,248 L16,248 C14.355294,248 13,249.3553 13,251 C13,252.6447 14.355294,254 16,254 L17,254 L17,256 C17,256.5713 16.571297,257 16,257 L4,257 C3.428703,257 3,256.5713 3,256 L3,246 C3,245.4287 3.428703,245 4,245 L16,245 C16.0299315,245.001346 16.0599085,245.001346 16.08984,245 L16.089844,244.9961 Z M16.000004,250 L19.000004,250 L19.000004,252 L16.000004,252 C15.42871,252 15.000004,251.5713 15.000004,251 C15.000004,250.4287 15.42871,250 16.000004,250 Z" id="balance"></path>
            </g>
        </g>
    </g>
</svg>