<?xml version="1.0" encoding="UTF-8"?>
<svg width="20px" height="22px" viewBox="0 0 20 22" version="1.1" xmlns="http://www.w3.org/2000/svg" xmlns:xlink="http://www.w3.org/1999/xlink">
    <!-- Generator: Sketch 53.2 (72643) - https://sketchapp.com -->
    <title>exit</title>
    <desc>Created with Sketch.</desc>
    <g id="Page-1" stroke="none" stroke-width="1" fill="none" fill-rule="evenodd">
        <g id="account" transform="translate(-29.000000, -709.000000)" fill="#2D2E2C" fill-rule="nonzero">
            <g id="side-navigation" transform="translate(29.000000, 150.000000)">
                <g id="log-out" transform="translate(0.000000, 559.000000)">
                    <path d="M16.5857864,10 L14.2928932,7.70710678 C13.9023689,7.31658249 13.9023689,6.68341751 14.2928932,6.29289322 C14.6834175,5.90236893 15.3165825,5.90236893 15.7071068,6.29289322 L19.7071068,10.2928932 C20.0976311,10.6834175 20.0976311,11.3165825 19.7071068,11.7071068 L15.7071068,15.7071068 C15.3165825,16.0976311 14.6834175,16.0976311 14.2928932,15.7071068 C13.9023689,15.3165825 13.9023689,14.6834175 14.2928932,14.2928932 L16.5857864,12 L7,12 C6.44771525,12 6,11.5522847 6,11 C6,10.4477153 6.44771525,10 7,10 L16.5857864,10 Z M8,20 C8.55228475,20 9,20.4477153 9,21 C9,21.5522847 8.55228475,22 8,22 L3,22 C1.34314575,22 0,20.6568542 0,19 L0,3 C0,1.34314575 1.34314575,0 3,0 L8,0 C8.55228475,0 9,0.44771525 9,1 C9,1.55228475 8.55228475,2 8,2 L3,2 C2.44771525,2 2,2.44771525 2,3 L2,19 C2,19.5522847 2.44771525,20 3,20 L8,20 Z" id="exit"></path>
                </g>
            </g>
        </g>
    </g>
</svg>