<?xml version="1.0" encoding="UTF-8"?>
<svg width="22px" height="20px" viewBox="0 0 22 20" version="1.1" xmlns="http://www.w3.org/2000/svg" xmlns:xlink="http://www.w3.org/1999/xlink">
    <!-- Generator: Sketch 53.2 (72643) - https://sketchapp.com -->
    <title>favorites</title>
    <desc>Created with Sketch.</desc>
    <g id="Page-1" stroke="none" stroke-width="1" fill="none" fill-rule="evenodd">
        <g id="account" transform="translate(-29.000000, -468.000000)" fill="#2D2E2C" fill-rule="nonzero">
            <g id="side-navigation" transform="translate(29.000000, 150.000000)">
                <path d="M22,324.280982 C22,325.946176 21.3403351,327.543319 20.1660497,328.720813 L11.7079807,337.205975 C11.3171993,337.598008 10.6822888,337.598008 10.2915075,337.205975 L1.83343851,328.720813 C-0.611146194,326.268397 -0.611146165,322.293567 1.83343857,319.841152 C4.27978676,317.386967 8.2474296,317.386967 10.6937778,319.841152 L10.9997441,320.148098 L11.3055447,319.841318 C12.4800583,318.662489 14.073812,318 15.73588,318 C17.3978698,318 18.9915519,318.662427 20.1660497,319.841152 C21.3403972,321.018796 22,322.615867 22,324.280982 Z M17.7353737,328.326314 L18.7497422,327.308696 C19.5501325,326.506119 20,325.416925 20,324.280982 C20,323.145039 19.5501325,322.055846 18.7497422,321.253268 C17.9500098,320.450598 16.8660044,320 15.73588,320 C14.6057557,320 13.5217503,320.450598 12.7221835,321.253102 L11.7079807,322.270554 C11.3171993,322.662587 10.6822888,322.662587 10.2915075,322.270554 L9.27730468,321.253102 C7.61251913,319.582984 4.91469727,319.582984 3.24991174,321.253102 C1.58336277,322.92499 1.58336275,325.636975 3.24991169,327.308862 L10.9997441,335.08352 L17.7353737,328.326314 Z" id="favorites"></path>
            </g>
        </g>
    </g>
</svg>