<?xml version="1.0" encoding="UTF-8"?>
<svg width="22px" height="22px" viewBox="0 0 22 22" version="1.1" xmlns="http://www.w3.org/2000/svg" xmlns:xlink="http://www.w3.org/1999/xlink">
    <!-- Generator: Sketch 53.2 (72643) - https://sketchapp.com -->
    <title>history</title>
    <desc>Created with Sketch.</desc>
    <g id="Page-1" stroke="none" stroke-width="1" fill="none" fill-rule="evenodd">
        <g id="account" transform="translate(-29.000000, -546.000000)" fill="#2D2E2C" fill-rule="nonzero">
            <g id="side-navigation" transform="translate(29.000000, 150.000000)">
                <path d="M11,418 C4.92486775,418 0,413.075132 0,407 C0,400.924868 4.92486775,396 11,396 C17.0751322,396 22,400.924868 22,407 C22,413.075132 17.0751322,418 11,418 Z M11,416 C15.9705627,416 20,411.970563 20,407 C20,402.029437 15.9705627,398 11,398 C6.02943725,398 2,402.029437 2,407 C2,411.970563 6.02943725,416 11,416 Z M14.7071068,409.292893 C15.0976311,409.683418 15.0976311,410.316582 14.7071068,410.707107 C14.3165825,411.097631 13.6834175,411.097631 13.2928932,410.707107 L10.2928932,407.707107 C10.1053568,407.51957 10,407.265216 10,407 L10,401 C10,400.447715 10.4477153,400 11,400 C11.5522847,400 12,400.447715 12,401 L12,406.585786 L14.7071068,409.292893 Z" id="history"></path>
            </g>
        </g>
    </g>
</svg>