<?xml version="1.0" encoding="UTF-8"?>
<svg width="22px" height="22px" viewBox="0 0 22 22" version="1.1" xmlns="http://www.w3.org/2000/svg" xmlns:xlink="http://www.w3.org/1999/xlink">
    <!-- Generator: Sketch 53.2 (72643) - https://sketchapp.com -->
    <title>settings</title>
    <desc>Created with Sketch.</desc>
    <g id="Page-1" stroke="none" stroke-width="1" fill="none" fill-rule="evenodd">
        <g id="account" transform="translate(-29.000000, -627.000000)" fill="#2D2E2C" fill-rule="nonzero">
            <g id="side-navigation" transform="translate(29.000000, 150.000000)">
                <path d="M6.09435615,494.319857 L3.92893219,496.485281 L2.51471863,495.071068 L4.68014258,492.905644 C3.81998894,491.799121 3.24404153,490.460708 3.06189375,489 L0,489 L0,487 L3.06189375,487 C3.24404153,485.539292 3.81998894,484.200879 4.68014258,483.094356 L2.51471863,480.928932 L3.92893219,479.514719 L6.09435615,481.680143 C7.20087908,480.819989 8.53929151,480.244042 10,480.061894 L10,477 L12,477 L12,480.061894 C13.4607085,480.244042 14.7991209,480.819989 15.9056439,481.680143 L18.0710678,479.514719 L19.4852814,480.928932 L17.3198574,483.094356 C18.1800111,484.200879 18.7559585,485.539292 18.9381062,487 L22,487 L22,489 L18.9381062,489 C18.7559585,490.460708 18.1800111,491.799121 17.3198574,492.905644 L19.4852814,495.071068 L18.0710678,496.485281 L15.9056439,494.319857 C14.7991209,495.180011 13.4607085,495.755958 12,495.938106 L12,499 L10,499 L10,495.938106 C8.53929151,495.755958 7.20087908,495.180011 6.09435615,494.319857 Z M11,494 C14.3137085,494 17,491.313708 17,488 C17,484.686292 14.3137085,482 11,482 C7.6862915,482 5,484.686292 5,488 C5,491.313708 7.6862915,494 11,494 Z M11,489 C10.4477153,489 10,488.552285 10,488 C10,487.447715 10.4477153,487 11,487 C11.5522847,487 12,487.447715 12,488 C12,488.552285 11.5522847,489 11,489 Z" id="settings"></path>
            </g>
        </g>
    </g>
</svg>