<?xml version="1.0" encoding="UTF-8"?>
<svg width="18px" height="20px" viewBox="0 0 18 20" version="1.1" xmlns="http://www.w3.org/2000/svg" xmlns:xlink="http://www.w3.org/1999/xlink">
    <!-- Generator: Sketch 53.2 (72643) - https://sketchapp.com -->
    <title>booked icon</title>
    <desc>Created with Sketch.</desc>
    <g id="Page-1" stroke="none" stroke-width="1" fill="none" fill-rule="evenodd">
        <g id="account" transform="translate(-606.000000, -274.000000)" fill="#5055B1" fill-rule="nonzero">
            <g id="booked" transform="translate(485.000000, 234.000000)">
                <path d="M123,47 L137,47 L137,45 C137,44.4477153 136.552285,44 136,44 L134,44 L134,45 C134,45.5522847 133.552285,46 133,46 C132.447715,46 132,45.5522847 132,45 L132,44 L128,44 L128,44.9285714 C128,45.5203051 127.552285,46 127,46 C126.447715,46 126,45.5203051 126,44.9285714 L126,44 L124,44 C123.447715,44 123,44.4477153 123,45 L123,47 Z M123,49 L123,57 C123,57.5522847 123.447715,58 124,58 L136,58 C136.552285,58 137,57.5522847 137,57 L137,49 L123,49 Z M128,42 L132,42 L132,41 C132,40.4477153 132.447715,40 133,40 C133.552285,40 134,40.4477153 134,41 L134,42 L136,42 C137.656854,42 139,43.3431458 139,45 L139,57 C139,58.6568542 137.656854,60 136,60 L124,60 C122.343146,60 121,58.6568542 121,57 L121,45 C121,43.3431458 122.343146,42 124,42 L126,42 L126,41.0714286 C126,40.4796949 126.447715,40 127,40 C127.552285,40 128,40.4796949 128,41.0714286 L128,42 Z" id="booked-icon"></path>
            </g>
        </g>
    </g>
</svg>