<?xml version="1.0" encoding="UTF-8"?>
<svg width="20px" height="20px" viewBox="0 0 20 20" version="1.1" xmlns="http://www.w3.org/2000/svg" xmlns:xlink="http://www.w3.org/1999/xlink">
    <!-- Generator: Sketch 53.2 (72643) - https://sketchapp.com -->
    <title>comment</title>
    <desc>Created with Sketch.</desc>
    <g id="Page-1" stroke="none" stroke-width="1" fill="none" fill-rule="evenodd">
        <g id="account" transform="translate(-897.000000, -274.000000)" fill="#7BC9E9" fill-rule="nonzero">
            <g id="comments" transform="translate(775.000000, 234.000000)">
                <path d="M128.385492,56.1513231 C128.638438,56.0670078 128.914582,56.087198 129.152573,56.2074083 C130.1901,56.7314656 131.336743,57.0030389 132.501327,57.000005 C135.341535,56.998906 137.937458,55.3935324 139.209104,52.849159 C139.733161,51.811632 140.004735,50.6649892 140.001704,49.5026256 L140.003219,49.0551046 C139.793197,45.2482418 136.753491,42.208535 133.001713,42.0000318 L132.499107,42.0000284 C131.336743,41.9969978 130.1901,42.2685711 129.148779,42.794535 C126.6082,44.0642747 125.002826,46.6601979 125.001724,49.5026256 C124.998694,50.6649892 125.270267,51.811632 125.794324,52.849159 C125.914534,53.0871509 125.934725,53.3632943 125.850409,53.6162401 L124.582868,57.4188645 L128.385492,56.1513231 Z M140.996207,53.7470711 C139.387869,56.9651388 136.099698,58.9986128 132.504321,59.0000015 C131.169252,59.0034824 129.850501,58.7219379 128.635669,58.176116 L123.317957,59.9486866 C122.536199,60.2092727 121.79246,59.4655336 122.053046,58.6837756 L123.825616,53.3660649 C123.279794,52.1512518 122.99825,50.8326937 123.001728,49.4996314 C123.00312,45.902034 125.036594,42.6138633 128.250867,41.0074324 C129.569567,40.3413539 131.026953,39.9961833 132.501714,40.0000318 L133.056799,40.0015502 C137.881541,40.2677273 141.734005,44.1201914 142.001701,49.0000192 L142.001701,49.4987515 C142.00534,50.9756604 141.660178,52.4325633 140.996207,53.7470711 Z" id="comment"></path>
            </g>
        </g>
    </g>
</svg>