<?xml version="1.0" encoding="UTF-8"?>
<svg width="20px" height="14px" viewBox="0 0 20 14" version="1.1" xmlns="http://www.w3.org/2000/svg" xmlns:xlink="http://www.w3.org/1999/xlink">
    <!-- Generator: Sketch 53.2 (72643) - https://sketchapp.com -->
    <title>earnings</title>
    <desc>Created with Sketch.</desc>
    <g id="Page-1" stroke="none" stroke-width="1" fill="none" fill-rule="evenodd">
        <g id="account" transform="translate(-315.000000, -278.000000)" fill="#309282" fill-rule="nonzero">
            <g id="Earnings" transform="translate(195.000000, 234.000000)">
                <path d="M138.237791,44.3526692 C138.595302,43.9317127 139.226374,43.8802799 139.647331,44.2377908 C140.068287,44.5953017 140.11972,45.2263743 139.762209,45.6473308 L131.694027,55.1473308 C131.327491,55.5789144 130.676067,55.6203591 130.257791,55.2387066 L126.158597,51.4984286 L121.813733,57.5812382 C121.492724,58.0306508 120.868174,58.1347425 120.418762,57.8137335 C119.969349,57.4927245 119.865258,56.8681744 120.186267,56.4187618 L125.186267,49.4187618 C125.534725,48.9309202 126.231165,48.8572072 126.674027,49.2612934 L130.840385,53.0628546 L138.237791,44.3526692 Z M133.272727,46 C132.720443,46 132.272727,45.5522847 132.272727,45 C132.272727,44.4477153 132.720443,44 133.272727,44 L139,44 C139.552285,44 140,44.4477153 140,45 L140,51 C140,51.5522847 139.552285,52 139,52 C138.447715,52 138,51.5522847 138,51 L138,46 L133.272727,46 Z" id="earnings"></path>
            </g>
        </g>
    </g>
</svg>