<?xml version="1.0" encoding="UTF-8"?>
<svg width="22px" height="20px" viewBox="0 0 22 20" version="1.1" xmlns="http://www.w3.org/2000/svg" xmlns:xlink="http://www.w3.org/1999/xlink">
    <!-- Generator: Sketch 53.2 (72643) - https://sketchapp.com -->
    <title>heart1 copy</title>
    <desc>Created with Sketch.</desc>
    <g id="Page-1" stroke="none" stroke-width="1" fill="none" fill-rule="evenodd" stroke-linecap="round" stroke-linejoin="round">
        <g id="account" transform="translate(-704.000000, -1318.000000)" stroke="#2D2E2C" stroke-width="2">
            <g id="activities" transform="translate(195.000000, 998.000000)">
                <g id="Group-6" transform="translate(0.000000, 56.000000)">
                    <g id="second-activity" transform="translate(290.000000, 0.000000)">
                        <path d="M238.457813,266.547127 C237.470856,265.556543 236.131976,265 234.73588,265 C233.339784,265 232.000904,265.556543 231.013947,266.547127 L229.999744,267.564579 L228.985541,266.547127 C226.929974,264.484976 223.597242,264.484976 221.541675,266.547127 C219.486108,268.609278 219.486108,271.952686 221.541675,274.014838 L222.555878,275.032289 L229.999744,282.5 L237.44361,275.032289 L238.457813,274.014838 C239.445234,273.024719 240,271.681551 240,270.280982 C240,268.880414 239.445234,267.537246 238.457813,266.547127 Z" id="heart1-copy"></path>
                    </g>
                </g>
            </g>
        </g>
    </g>
</svg>