<?xml version="1.0" encoding="UTF-8"?>
<svg width="16px" height="22px" viewBox="0 0 16 22" version="1.1" xmlns="http://www.w3.org/2000/svg" xmlns:xlink="http://www.w3.org/1999/xlink">
    <!-- Generator: Sketch 53.2 (72643) - https://sketchapp.com -->
    <title>notifications</title>
    <desc>Created with Sketch.</desc>
    <g id="Page-1" stroke="none" stroke-width="1" fill="none" fill-rule="evenodd">
        <g id="account" transform="translate(-1300.000000, -29.000000)" fill="#9EA0A5" fill-rule="nonzero">
            <g id="top-navigation" transform="translate(24.000000, 15.000000)">
                <path d="M1282.13836,16 L1282,16 C1282,14.8793437 1283,14 1284,14 C1285,14 1286,14.8527699 1286,16 L1285.86164,16 C1289.3053,16.8318803 1292,19.9024633 1292,23.5631435 L1292,33 L1276,33 L1276,23.5631435 C1276,19.9024633 1278.6947,16.8318803 1282.13836,16 Z M1290,31 L1290,23.5631435 C1290,20.4309018 1287.24173,17.7777778 1284,17.7777778 C1280.75827,17.7777778 1278,20.4309018 1278,23.5631435 L1278,31 L1290,31 Z M1286,34 C1286,35.3461539 1284.61708,36 1284,36 C1283.38292,36 1282,35.3461539 1282,34 L1286,34 Z" id="notifications"></path>
            </g>
        </g>
    </g>
</svg>