<svg width="22" height="22" xmlns="http://www.w3.org/2000/svg"><path d="M6.094 17.32L3.93 19.485l-1.414-1.414 2.165-2.165A7.96 7.96 0 0 1 3.062 12H0v-2h3.062A7.96 7.96 0 0 1 4.68 6.094L2.515 3.93l1.414-1.414L6.094 4.68A7.96 7.96 0 0 1 10 3.062V0h2v3.062a7.96 7.96 0 0 1 3.906 1.618l2.165-2.165 1.414 1.414-2.165 2.165A7.96 7.96 0 0 1 18.938 10H22v2h-3.062a7.96 7.96 0 0 1-1.618 3.906l2.165 2.165-1.414 1.414-2.165-2.165A7.96 7.96 0 0 1 12 18.938V22h-2v-3.062a7.96 7.96 0 0 1-3.906-1.618zM11 17a6 6 0 1 0 0-12 6 6 0 0 0 0 12zm0-5a1 1 0 1 1 0-2 1 1 0 0 1 0 2z" fill="#2D2E2C"/></svg>