<svg width="20" height="20" xmlns="http://www.w3.org/2000/svg"><path d="M6.385 16.151a1 1 0 0 1 .768.056A7.382 7.382 0 0 0 10.5 17a7.502 7.502 0 0 0 6.708-4.15 7.38 7.38 0 0 0 .793-3.347l.001-.448c-.21-3.807-3.25-6.846-7.001-7.055h-.503a7.384 7.384 0 0 0-3.35.795 7.5 7.5 0 0 0-4.147 6.708 7.38 7.38 0 0 0 .792 3.346 1 1 0 0 1 .056.767L2.583 17.42l3.802-1.268zm12.611-2.404A9.5 9.5 0 0 1 10.504 19a9.38 9.38 0 0 1-3.868-.824L1.318 19.95a1 1 0 0 1-1.265-1.265l1.773-5.318A9.498 9.498 0 0 1 6.25 1.007 9.377 9.377 0 0 1 10.5 0l.556.002C15.882.268 19.734 4.12 20.002 9v.499a9.376 9.376 0 0 1-1.006 4.248z" fill="#7BC9E9"/></svg>