<svg width="20" height="20" xmlns="http://www.w3.org/2000/svg"><path d="M9 0c-.767 0-1.54.3-2.121.88L3.759 4H2C.945 4 0 5 0 5.996V18c0 1 1 2 2 2h14c1 0 2-1 2-2v-3h1a1 1 0 0 0 1-1v-4a1 1 0 0 0-1-1h-1V5.996c0-.996-1-1.992-2-1.992h-1.762L11.121.884A2.992 2.992 0 0 0 9 0zm0 2c.255 0 .505.093.707.295L11.412 4H6.588l1.705-1.705A.983.983 0 0 1 9 2zm6.09 3.996c.462-.042.91.435.91 1.004v2h-1c-1.645 0-3 1.355-3 3s1.355 3 3 3h1v2c0 .571-.429 1-1 1H3c-.571 0-1-.429-1-1V7c0-.571.429-1 1-1h12a1 1 0 0 0 .09 0v-.004zM15 11h3v2h-3c-.571 0-1-.429-1-1s.429-1 1-1z" fill="#2D2E2C"/></svg>